<?xml version="1.0" encoding="UTF-8" standalone="no"?><svg xmlns="http://www.w3.org/2000/svg" xmlns:xlink="http://www.w3.org/1999/xlink" contentScriptType="application/ecmascript" contentStyleType="text/css" height="890px" preserveAspectRatio="none" style="width:1184px;height:890px;background:#FFFFFF;" version="1.1" viewBox="0 0 1184 890" width="1184px" zoomAndPan="magnify"><defs><filter height="300%" id="f1rz297u8iwl4n" width="300%" x="-1" y="-1"><feGaussianBlur result="blurOut" stdDeviation="2.0"/><feColorMatrix in="blurOut" result="blurOut2" type="matrix" values="0 0 0 0 0 0 0 0 0 0 0 0 0 0 0 0 0 0 .4 0"/><feOffset dx="4.0" dy="4.0" in="blurOut2" result="blurOut3"/><feBlend in="SourceGraphic" in2="blurOut3" mode="normal"/></filter></defs><g><!--MD5=[d5ac3844f66b12d9e08170e47495e096]
cluster app--><rect fill="#FFFFFF" filter="url(#f1rz297u8iwl4n)" height="367" style="stroke:#000000;stroke-width:1.5;" width="196" x="636.5" y="404.2236"/><line style="stroke:#000000;stroke-width:1.5;" x1="636.5" x2="832.5" y1="424.5205" y2="424.5205"/><text fill="#000000" font-family="sans-serif" font-size="14" font-weight="bold" lengthAdjust="spacing" textLength="30" x="719.5" y="419.2187">app</text><!--MD5=[36f7e31f1efc37fd105c1a31b95a88b5]
cluster mgmt--><rect fill="#FFFFFF" filter="url(#f1rz297u8iwl4n)" height="351.36" style="stroke:#000000;stroke-width:1.5;" width="355" x="131.5" y="122.2236"/><line style="stroke:#000000;stroke-width:1.5;" x1="131.5" x2="486.5" y1="142.5205" y2="142.5205"/><text fill="#000000" font-family="sans-serif" font-size="14" font-weight="bold" lengthAdjust="spacing" textLength="48" x="285" y="137.2187">mgmt</text><!--MD5=[01aa91902062b6dd19454a7032c6cad4]
entity app_private--><rect fill="#FEFECE" filter="url(#f1rz297u8iwl4n)" height="36.2969" rx="35" ry="35" style="stroke:#000000;stroke-width:1.5;" width="107" x="691" y="579.2236"/><text fill="#000000" font-family="sans-serif" font-size="14" lengthAdjust="spacing" textLength="87" x="701" y="602.2187">app_private</text><!--MD5=[a70733dcbe14b62130d262a3449e4d81]
entity app_public--><rect fill="#FEFECE" filter="url(#f1rz297u8iwl4n)" height="36.2969" rx="35" ry="35" style="stroke:#000000;stroke-width:1.5;" width="99" x="690" y="447.2236"/><text fill="#000000" font-family="sans-serif" font-size="14" lengthAdjust="spacing" textLength="79" x="700" y="470.2187">app_public</text><!--MD5=[f5efbb301eb62f528f63e1f89bbf538e]
entity app_persistence--><rect fill="#FEFECE" filter="url(#f1rz297u8iwl4n)" height="36.2969" rx="35" ry="35" style="stroke:#000000;stroke-width:1.5;" width="140" x="660.5" y="711.2236"/><text fill="#000000" font-family="sans-serif" font-size="14" lengthAdjust="spacing" textLength="120" x="670.5" y="734.2187">app_persistence</text><!--MD5=[384e024e82cb8716c53629423b4b6ff7]
entity mgmt_public--><rect fill="#FEFECE" filter="url(#f1rz297u8iwl4n)" height="36.2969" rx="35" ry="35" style="stroke:#000000;stroke-width:1.5;" width="115" x="347" y="165.2236"/><text fill="#000000" font-family="sans-serif" font-size="14" lengthAdjust="spacing" textLength="95" x="357" y="188.2187">mgmt_public</text><!--MD5=[f700e235dab87d556f1a959d08578d6b]
entity mgmt_private--><rect fill="#FEFECE" filter="url(#f1rz297u8iwl4n)" height="36.2969" rx="35" ry="35" style="stroke:#000000;stroke-width:1.5;" width="123" x="339" y="287.7236"/><text fill="#000000" font-family="sans-serif" font-size="14" lengthAdjust="spacing" textLength="103" x="349" y="310.7187">mgmt_private</text><!--MD5=[e8dbf04fe84513d742181b75c3a1bd4f]
entity mgmt_persistence--><rect fill="#FEFECE" filter="url(#f1rz297u8iwl4n)" height="36.2969" rx="35" ry="35" style="stroke:#000000;stroke-width:1.5;" width="156" x="155.5" y="165.2236"/><text fill="#000000" font-family="sans-serif" font-size="14" lengthAdjust="spacing" textLength="136" x="165.5" y="188.2187">mgmt_persistence</text><!--MD5=[fec892eb85a09d67c5269fdeb7dc27bd]
entity universe--><path d="M368.2288,14.3961 C372.25,8.5541 376.5094,7.6484 380.8866,14.0273 C384.3366,7.1066 388.3676,6.904 393.3089,12.5537 C395.6126,6.549 401.9856,6 405.9528,10.5634 C409.0502,6.236 414.4543,6.2554 416.8476,11.3753 C422.0434,6.9715 426.7607,7.2529 429.6694,14.0042 C434.1658,7.3496 438.9009,6.8272 443.1072,14.2805 C451.3884,15.3822 455.0878,21.9538 448.667,28.7173 C454.3765,36.2638 450.0232,42.6853 441.6474,43.5788 C440.4246,50.2415 435.6035,51.3576 431.0166,46.7529 C428.3395,54.5256 422.0745,54.4728 417.3369,48.8584 C414.7611,55.4651 409.9539,56.207 405.2895,50.9858 C400.7863,56.0606 396.2668,56.9479 392.9255,49.8095 C387.206,54.5031 382.5112,53.4014 380.9165,45.7855 C377.4308,51.0539 372.8556,51.7626 369.5166,45.6385 C360.3935,44.8249 356.5391,36.9683 361.3207,29.2155 C356.751,21.3172 358.5973,15.6745 368.2288,14.3961 " fill="#FEFECE" filter="url(#f1rz297u8iwl4n)" style="stroke:#000000;stroke-width:1.5;"/><text fill="#000000" font-family="sans-serif" font-size="14" lengthAdjust="spacing" textLength="60" x="374.5" y="33.2187">universe</text><path d="M30,170.7236 L30,195.8564 L107,195.8564 L107,180.7236 L97,170.7236 L30,170.7236 " fill="#FBFB77" filter="url(#f1rz297u8iwl4n)" style="stroke:#A80036;stroke-width:1.0;"/><path d="M97,170.7236 L97,180.7236 L107,180.7236 L97,170.7236 " fill="#FBFB77" style="stroke:#A80036;stroke-width:1.0;"/><text fill="#000000" font-family="sans-serif" font-size="13" lengthAdjust="spacing" textLength="56" x="36" y="187.7905">0.0.0.0/0</text><!--MD5=[27f03d1005842210d54266b6b13a4e72]
entity aws_s3--><path d="M1002.0258,714.7949 C1007.5855,707.5988 1012.6729,705.5327 1018.6721,714.3377 C1021.8299,706.4582 1026.9162,705.2793 1032.7581,711.6925 C1038.9983,704.8679 1044.3617,704.5934 1048.5912,713.6918 C1054.6756,707.1774 1061.8742,706.0571 1065.6989,716.0357 C1072.5267,720.3674 1073.3638,725.2908 1065.9249,729.8558 C1074.1824,735.3748 1072.4269,740.7692 1065.3505,745.7335 C1060.4796,754.6814 1055.1264,754.1127 1048.9306,747.0962 C1045.3947,756.0805 1039.1343,756.4199 1032.6519,750.2644 C1027.4365,756.3965 1020.9305,757.0151 1017.5044,748.4235 C1010.1234,755.1629 1005.3101,752.5214 1001.4508,744.5742 C992.5519,741.8421 992.4041,736.6725 997.1178,729.9165 C991.8036,723.1145 993.2891,717.0365 1002.0258,714.7949 " fill="#FEFECE" filter="url(#f1rz297u8iwl4n)" style="stroke:#000000;stroke-width:1.5;"/><text fill="#000000" font-family="sans-serif" font-size="14" lengthAdjust="spacing" textLength="49" x="1008" y="734.2187">aws_s3</text><path d="M974,826.2236 L974,881.622 A0,0 0 0 0 974,881.622 L1091,881.622 A0,0 0 0 0 1091,881.622 L1091,836.2236 L1081,826.2236 L1036.5,826.2236 L1032.5,752.4076 L1028.5,826.2236 L974,826.2236 A0,0 0 0 0 974,826.2236 " fill="#FBFB77" filter="url(#f1rz297u8iwl4n)" style="stroke:#A80036;stroke-width:1.0;"/><path d="M1081,826.2236 L1081,836.2236 L1091,836.2236 L1081,826.2236 " fill="#FBFB77" style="stroke:#A80036;stroke-width:1.0;"/><text fill="#000000" font-family="sans-serif" font-size="13" lengthAdjust="spacing" textLength="80" x="980" y="843.2905">3.5.164.0/22</text><text fill="#000000" font-family="sans-serif" font-size="13" lengthAdjust="spacing" textLength="80" x="980" y="858.4233">3.5.168.0/23</text><text fill="#000000" font-family="sans-serif" font-size="13" lengthAdjust="spacing" textLength="96" x="980" y="873.5561">52.95.128.0/21</text><!--MD5=[8254040bff86c38ea793e616bf2a1b75]
entity onprem_ldap--><path d="M458.2917,714.6904 C462.3546,707.159 467.6179,707.648 472.2298,714.1449 C475.4912,708.3417 481.6435,708.1283 485.0839,713.9469 C488.3555,706.5319 493.8087,706.2199 498.4604,712.6095 C502.8537,705.6394 509.5212,704.7316 513.43,713.0828 C516.3637,707.3188 521.9168,707.9962 525.1377,712.7634 C529.4984,705.4175 536.1893,707.2647 539.8856,713.4857 C544.0831,708.2184 550.9463,708.1779 553.4044,715.3725 C557.2647,709.4611 563.1842,708.8553 567.4001,714.9583 C575.9226,716.0404 581.447,722.9476 574.4884,730.9092 C578.3214,738.6304 577.2155,743.7751 567.5804,744.7971 C564.6924,752.9758 560.1503,753.6967 554.0381,747.9275 C550.5923,755.2207 543.3577,754.0871 539.5128,748.3732 C534.9479,755.9128 530.3406,754.3757 525.7185,748.4317 C522.0082,755.5289 516.8876,756.6928 511.7174,749.9037 C508.0566,755.3299 503.0525,755.7464 499.0086,750.3537 C494.2475,755.0949 489.8189,755.5939 486.4426,748.84 C481.54,756.1804 473.8409,755.6096 470.9619,746.8894 C465.0795,753.1757 460.8821,750.936 457.1179,744.5715 C449.2348,744.2072 444.5448,739.3335 448.5644,731.2987 C443.6611,722.1394 448.6995,715.3599 458.2917,714.6904 " fill="#FEFECE" filter="url(#f1rz297u8iwl4n)" style="stroke:#000000;stroke-width:1.5;"/><text fill="#000000" font-family="sans-serif" font-size="14" lengthAdjust="spacing" textLength="95" x="464" y="734.2187">onprem_ldap</text><path d="M445,841.2236 L445,866.3564 A0,0 0 0 0 445,866.3564 L578,866.3564 A0,0 0 0 0 578,866.3564 L578,851.2236 L568,841.2236 L515.5,841.2236 L511.5,752.4076 L507.5,841.2236 L445,841.2236 A0,0 0 0 0 445,841.2236 " fill="#FBFB77" filter="url(#f1rz297u8iwl4n)" style="stroke:#A80036;stroke-width:1.0;"/><path d="M568,841.2236 L568,851.2236 L578,851.2236 L568,841.2236 " fill="#FBFB77" style="stroke:#A80036;stroke-width:1.0;"/><text fill="#000000" font-family="sans-serif" font-size="13" lengthAdjust="spacing" textLength="112" x="451" y="858.2905">54.192.220.70/32</text><path d="M1082,569.7236 L1082,625.122 L1175,625.122 L1175,579.7236 L1165,569.7236 L1082,569.7236 " fill="#FBFB77" filter="url(#f1rz297u8iwl4n)" style="stroke:#A80036;stroke-width:1.0;"/><path d="M1165,569.7236 L1165,579.7236 L1175,579.7236 L1165,569.7236 " fill="#FBFB77" style="stroke:#A80036;stroke-width:1.0;"/><text fill="#000000" font-family="sans-serif" font-size="13" lengthAdjust="spacing" textLength="72" x="1088" y="586.7905">10.0.0.0/16</text><text fill="#000000" font-family="sans-serif" font-size="13" lengthAdjust="spacing" textLength="72" x="1088" y="601.9233">10.1.0.0/16</text><text fill="#000000" font-family="sans-serif" font-size="13" lengthAdjust="spacing" textLength="72" x="1088" y="617.0561">10.2.0.0/16</text><path d="M311,584.7236 L311,609.8564 L404,609.8564 L404,594.7236 L394,584.7236 L311,584.7236 " fill="#FBFB77" filter="url(#f1rz297u8iwl4n)" style="stroke:#A80036;stroke-width:1.0;"/><path d="M394,584.7236 L394,594.7236 L404,594.7236 L394,584.7236 " fill="#FBFB77" style="stroke:#A80036;stroke-width:1.0;"/><text fill="#000000" font-family="sans-serif" font-size="13" lengthAdjust="spacing" textLength="72" x="317" y="601.7905">10.8.0.0/16</text><path d="M511,437.7236 L511,493.122 L612,493.122 L612,447.7236 L602,437.7236 L511,437.7236 " fill="#FBFB77" filter="url(#f1rz297u8iwl4n)" style="stroke:#A80036;stroke-width:1.0;"/><path d="M602,437.7236 L602,447.7236 L612,447.7236 L602,437.7236 " fill="#FBFB77" style="stroke:#A80036;stroke-width:1.0;"/><text fill="#000000" font-family="sans-serif" font-size="13" lengthAdjust="spacing" textLength="80" x="517" y="454.7905">10.8.16.0/22</text><text fill="#000000" font-family="sans-serif" font-size="13" lengthAdjust="spacing" textLength="80" x="517" y="469.9233">10.8.12.0/22</text><text fill="#000000" font-family="sans-serif" font-size="13" lengthAdjust="spacing" textLength="80" x="517" y="485.0561">10.8.20.0/22</text><path d="M511,278.2236 L511,333.622 A0,0 0 0 0 511,333.622 L604,333.622 A0,0 0 0 0 604,333.622 L604,288.2236 L594,278.2236 L527.624,278.2236 L426.097,201.2326 L519.624,278.2236 L511,278.2236 A0,0 0 0 0 511,278.2236 " fill="#FBFB77" filter="url(#f1rz297u8iwl4n)" style="stroke:#A80036;stroke-width:1.0;"/><path d="M594,278.2236 L594,288.2236 L604,288.2236 L594,278.2236 " fill="#FBFB77" style="stroke:#A80036;stroke-width:1.0;"/><text fill="#000000" font-family="sans-serif" font-size="13" lengthAdjust="spacing" textLength="72" x="517" y="295.2905">10.8.0.0/22</text><text fill="#000000" font-family="sans-serif" font-size="13" lengthAdjust="spacing" textLength="72" x="517" y="310.4233">10.8.8.0/22</text><text fill="#000000" font-family="sans-serif" font-size="13" lengthAdjust="spacing" textLength="72" x="517" y="325.5561">10.8.4.0/22</text><path d="M680,826.2236 L680,881.622 A0,0 0 0 0 680,881.622 L781,881.622 A0,0 0 0 0 781,881.622 L781,836.2236 L771,826.2236 L734.5,826.2236 L730.5,747.2566 L726.5,826.2236 L680,826.2236 A0,0 0 0 0 680,826.2236 " fill="#FBFB77" filter="url(#f1rz297u8iwl4n)" style="stroke:#A80036;stroke-width:1.0;"/><path d="M771,826.2236 L771,836.2236 L781,836.2236 L771,826.2236 " fill="#FBFB77" style="stroke:#A80036;stroke-width:1.0;"/><text fill="#000000" font-family="sans-serif" font-size="13" lengthAdjust="spacing" textLength="80" x="686" y="843.2905">10.0.24.0/22</text><text fill="#000000" font-family="sans-serif" font-size="13" lengthAdjust="spacing" textLength="80" x="686" y="858.4233">10.0.28.0/22</text><text fill="#000000" font-family="sans-serif" font-size="13" lengthAdjust="spacing" textLength="80" x="686" y="873.5561">10.0.32.0/22</text><path d="M6,278.2236 L6,333.622 A0,0 0 0 0 6,333.622 L107,333.622 A0,0 0 0 0 107,333.622 L107,288.2236 L97,278.2236 L99.6894,278.2236 L208.516,201.2326 L91.6894,278.2236 L6,278.2236 A0,0 0 0 0 6,278.2236 " fill="#FBFB77" filter="url(#f1rz297u8iwl4n)" style="stroke:#A80036;stroke-width:1.0;"/><path d="M97,278.2236 L97,288.2236 L107,288.2236 L97,278.2236 " fill="#FBFB77" style="stroke:#A80036;stroke-width:1.0;"/><text fill="#000000" font-family="sans-serif" font-size="13" lengthAdjust="spacing" textLength="80" x="12" y="295.2905">10.8.32.0/22</text><text fill="#000000" font-family="sans-serif" font-size="13" lengthAdjust="spacing" textLength="80" x="12" y="310.4233">10.8.28.0/22</text><text fill="#000000" font-family="sans-serif" font-size="13" lengthAdjust="spacing" textLength="80" x="12" y="325.5561">10.8.24.0/22</text><path d="M857,569.7236 L857,625.122 A0,0 0 0 0 857,625.122 L950,625.122 A0,0 0 0 0 950,625.122 L950,579.7236 L940,569.7236 L873.957,569.7236 L761.278,483.4866 L865.957,569.7236 L857,569.7236 A0,0 0 0 0 857,569.7236 " fill="#FBFB77" filter="url(#f1rz297u8iwl4n)" style="stroke:#A80036;stroke-width:1.0;"/><path d="M940,569.7236 L940,579.7236 L950,579.7236 L940,569.7236 " fill="#FBFB77" style="stroke:#A80036;stroke-width:1.0;"/><text fill="#000000" font-family="sans-serif" font-size="13" lengthAdjust="spacing" textLength="72" x="863" y="586.7905">10.0.4.0/22</text><text fill="#000000" font-family="sans-serif" font-size="13" lengthAdjust="spacing" textLength="72" x="863" y="601.9233">10.0.0.0/22</text><text fill="#000000" font-family="sans-serif" font-size="13" lengthAdjust="spacing" textLength="72" x="863" y="617.0561">10.0.8.0/22</text><path d="M857,701.7236 L857,757.122 A0,0 0 0 0 857,757.122 L958,757.122 A0,0 0 0 0 958,757.122 L958,711.7236 L948,701.7236 L878.162,701.7236 L766.145,615.4866 L870.162,701.7236 L857,701.7236 A0,0 0 0 0 857,701.7236 " fill="#FBFB77" filter="url(#f1rz297u8iwl4n)" style="stroke:#A80036;stroke-width:1.0;"/><path d="M948,701.7236 L948,711.7236 L958,711.7236 L948,701.7236 " fill="#FBFB77" style="stroke:#A80036;stroke-width:1.0;"/><text fill="#000000" font-family="sans-serif" font-size="13" lengthAdjust="spacing" textLength="80" x="863" y="718.7905">10.0.16.0/22</text><text fill="#000000" font-family="sans-serif" font-size="13" lengthAdjust="spacing" textLength="80" x="863" y="733.9233">10.0.20.0/22</text><text fill="#000000" font-family="sans-serif" font-size="13" lengthAdjust="spacing" textLength="80" x="863" y="749.0561">10.0.12.0/22</text><!--MD5=[2deac381fc1f5fd75793ce36ebce0624]
link universe to GMN10718--><path d="M359.34,34.8656 C304.088,43.3806 209.297,63.3256 139.5,106.2236 C111.81,123.2416 87.9579,153.9016 76.236,170.6056 " fill="none" id="universe-GMN10718" style="stroke:#A80036;stroke-width:1.0;stroke-dasharray:7.0,7.0;"/><!--MD5=[32257f1a794f8541f738a483a8add4dc]
link app to GMN10729--><path d="M832.8546,466.9086 C832.9921,466.9212 833.1312,466.934 833.2719,466.947 C833.8345,466.9989 834.4221,467.0539 835.0339,467.1123 C836.2575,467.2289 837.5783,467.3586 838.991,467.5023 C841.8165,467.7895 845.01,468.1326 848.5309,468.5387 C862.6146,470.1628 881.9368,472.7942 903.8965,476.891 C947.816,485.0846 1002.286,499.1401 1046.5,522.7236 C1068.77,534.6006 1089.87,553.7706 1105.09,569.5556 " fill="none" id="app-GMN10729" style="stroke:#A80036;stroke-width:1.0;stroke-dasharray:7.0,7.0;"/><!--MD5=[4fd7bd9d15fce1d3acc8c78ac3a7ce4f]
link mgmt to GMN10732--><path d="M367.8579,473.8099 C367.8407,474.0134 367.8232,474.2205 367.8054,474.4311 C367.7697,474.8524 367.7329,475.2878 367.6949,475.7367 C367.5429,477.5325 367.3726,479.5456 367.1866,481.7434 C366.4427,490.5347 365.4487,502.2825 364.3804,514.9083 C362.2438,540.1601 359.81,568.9241 358.486,584.5726 " fill="none" id="mgmt-GMN10732" style="stroke:#A80036;stroke-width:1.0;stroke-dasharray:7.0,7.0;"/><!--MD5=[c43bb2e0eb6010e1e05ee993e269190e]
link mgmt_private to GMN10735--><path d="M430.21,323.7426 C446.831,334.0216 467.384,348.0456 483.5,363.2236 C507.37,385.7036 529.71,415.9486 544.311,437.4666 " fill="none" id="mgmt_private-GMN10735" style="stroke:#A80036;stroke-width:1.0;stroke-dasharray:7.0,7.0;"/><!--MD5=[65824d1ef0bf5a686a03df94afa4bc0a]
link universe to app_public--><path d="M429.599,51.5476 C485.105,102.0786 619.663,231.1326 699.5,363.2236 C714.854,388.6266 726.447,420.9676 733.101,442.1156 " fill="none" id="universe-to-app_public" style="stroke:#A80036;stroke-width:1.0;"/><polygon fill="#A80036" points="734.605,446.9766,735.7651,437.1963,733.1266,442.2001,728.1228,439.5617,734.605,446.9766" style="stroke:#A80036;stroke-width:1.0;"/><text fill="#000000" font-family="sans-serif" font-size="13" lengthAdjust="spacing" textLength="24" x="616.5" y="244.2905">443</text><!--MD5=[a84f7b1bbb50acf30e90d4cf70a6ea36]
link mgmt_private to mgmt--><path d="M397.015,323.8786 C388.85,364.0616 369.129,461.1276 368.515,464.1516 " fill="none" id="mgmt_private-to-mgmt" style="stroke:#A80036;stroke-width:1.0;"/><polygon fill="#A80036" points="368.515,464.1516,374.2259,456.1275,369.5099,459.2516,366.3858,454.5356,368.515,464.1516" style="stroke:#A80036;stroke-width:1.0;"/><text fill="#000000" font-family="sans-serif" font-size="13" lengthAdjust="spacing" textLength="23" x="389.5" y="376.2905">ALL</text><!--MD5=[2b366445bc1fd81c549defe5f1fa034f]
link app_private to app_persistence--><path d="M725.506,615.5966 C715.697,625.8886 704.714,639.8086 699.5,654.7236 C693.288,672.4946 702.414,692.1176 712.341,706.6146 " fill="none" id="app_private-to-app_persistence" style="stroke:#A80036;stroke-width:1.0;"/><polygon fill="#A80036" points="715.431,710.9406,713.4554,701.2919,712.5251,706.8717,706.9453,705.9414,715.431,710.9406" style="stroke:#A80036;stroke-width:1.0;"/><text fill="#000000" font-family="sans-serif" font-size="13" lengthAdjust="spacing" textLength="32" x="700.5" y="667.7905">3306</text><!--MD5=[2b366445bc1fd81c549defe5f1fa034f]
link app_private to app_persistence--><path d="M742.997,615.4646 C741.664,630.3686 739.608,652.4836 737.5,671.7236 C736.263,683.0186 734.725,695.5636 733.406,705.9576 " fill="none" id="app_private-to-app_persistence-1" style="stroke:#A80036;stroke-width:1.0;"/><polygon fill="#A80036" points="732.739,711.1786,737.8483,702.7587,733.3732,706.219,729.9129,701.7439,732.739,711.1786" style="stroke:#A80036;stroke-width:1.0;"/><text fill="#000000" font-family="sans-serif" font-size="13" lengthAdjust="spacing" textLength="16" x="740.5" y="667.7905">22</text><!--MD5=[54bb8a53d7feb05f1f1e5ff5aab068f2]
link universe to mgmt_public--><path d="M404.5,51.4716 C404.5,80.4956 404.5,130.9866 404.5,159.9996 " fill="none" id="universe-to-mgmt_public" style="stroke:#A80036;stroke-width:1.0;"/><polygon fill="#A80036" points="404.5,165.1576,408.5,156.1576,404.5,160.1576,400.5,156.1576,404.5,165.1576" style="stroke:#A80036;stroke-width:1.0;"/><text fill="#000000" font-family="sans-serif" font-size="13" lengthAdjust="spacing" textLength="24" x="405.5" y="94.2905">443</text><!--MD5=[6a6ddd66045196e60a438983a7b0dc74]
link app_public to app_private--><path d="M740.164,483.4866 C741.057,506.6996 742.646,548.0156 743.632,573.6656 " fill="none" id="app_public-to-app_private" style="stroke:#A80036;stroke-width:1.0;"/><polygon fill="#A80036" points="743.833,578.8896,747.4829,569.742,743.6402,573.8933,739.4889,570.0505,743.833,578.8896" style="stroke:#A80036;stroke-width:1.0;"/><text fill="#000000" font-family="sans-serif" font-size="13" lengthAdjust="spacing" textLength="24" x="743.5" y="535.7905">443</text><!--MD5=[de74438d8ccb9c18b6693b72a1c8c388]
link app_private to aws_s3--><path d="M782.995,615.2746 C828.907,635.6566 907.937,670.8846 975.5,701.7236 C979.656,703.6206 983.976,705.6056 988.297,707.5996 " fill="none" id="app_private-to-aws_s3" style="stroke:#A80036;stroke-width:1.0;"/><polygon fill="#A80036" points="992.977,709.7626,986.4859,702.3555,988.4384,707.6647,983.1292,709.6172,992.977,709.7626" style="stroke:#A80036;stroke-width:1.0;"/><text fill="#000000" font-family="sans-serif" font-size="13" lengthAdjust="spacing" textLength="24" x="907.5" y="667.7905">443</text><!--MD5=[ab5d7540bcae76175e83b6cbaa37eec3]
link app_public to aws_s3--><path d="M773.024,483.2966 C779.46,486.4856 786.168,489.7496 792.5,492.7236 C869.414,528.8466 908.18,508.8816 967.5,569.7236 C1003.615,606.7656 1020.66,666.6466 1027.88,701.2276 " fill="none" id="app_public-to-aws_s3" style="stroke:#A80036;stroke-width:1.0;"/><polygon fill="#A80036" points="1028.87,706.1406,1031.003,696.5255,1027.8771,701.2402,1023.1624,698.1142,1028.87,706.1406" style="stroke:#A80036;stroke-width:1.0;"/><text fill="#000000" font-family="sans-serif" font-size="13" lengthAdjust="spacing" textLength="24" x="1003.5" y="601.7905">443</text><!--MD5=[05ef14c81527f0c7c7386b64233d4c92]
link mgmt_private to app--><path d="M443.033,323.7506 C458.696,329.5046 476.713,335.5266 493.5,339.7236 C563.915,357.3296 766.322,335.7796 816.5,388.2236 C819.3434,391.1953 821.6154,394.5618 823.4128,398.1838 C824.3115,399.9948 825.0915,401.8697 825.765,403.7911 C825.8071,403.9112 825.8488,404.0315 825.89,404.1519 " fill="none" id="mgmt_private-to-app" style="stroke:#A80036;stroke-width:1.0;"/><polygon fill="#A80036" points="825.89,404.1519,826.7574,394.3413,824.2696,399.4218,819.1892,396.934,825.89,404.1519" style="stroke:#A80036;stroke-width:1.0;"/><text fill="#000000" font-family="sans-serif" font-size="13" lengthAdjust="spacing" textLength="23" x="807.5" y="376.2905">ALL</text><!--MD5=[2bc7cd30c0e908ea9860bbecd345a9db]
link mgmt_public to mgmt_private--><path d="M403.935,201.2326 C403.231,222.4626 402.023,258.8326 401.244,282.3156 " fill="none" id="mgmt_public-to-mgmt_private" style="stroke:#A80036;stroke-width:1.0;"/><polygon fill="#A80036" points="401.075,287.4106,405.3711,278.5481,401.2407,282.4133,397.3755,278.283,401.075,287.4106" style="stroke:#A80036;stroke-width:1.0;"/><text fill="#000000" font-family="sans-serif" font-size="13" lengthAdjust="spacing" textLength="24" x="404.5" y="244.2905">443</text><!--MD5=[91d928da5d9fd425ba3c4be4aa78b221]
link app_private to onprem_ldap--><path d="M713.559,615.4866 C673.026,638.1016 601.696,677.8996 555.538,703.6536 " fill="none" id="app_private-to-onprem_ldap" style="stroke:#A80036;stroke-width:1.0;"/><polygon fill="#A80036" points="551.151,706.1006,560.9594,705.2087,555.5174,703.6645,557.0616,698.2225,551.151,706.1006" style="stroke:#A80036;stroke-width:1.0;"/><text fill="#000000" font-family="sans-serif" font-size="13" lengthAdjust="spacing" textLength="24" x="643.5" y="667.7905">636</text><!--MD5=[108e154d98ea1e30416a72df4aeb0c43]
link mgmt_private to onprem_ldap--><path d="M413.547,324.1876 C420.998,334.9406 429.937,349.2936 435.5,363.2236 C483.599,483.6666 502.963,639.1686 509.107,701.0676 " fill="none" id="mgmt_private-to-onprem_ldap" style="stroke:#A80036;stroke-width:1.0;"/><polygon fill="#A80036" points="509.594,706.0626,512.7009,696.7166,509.1084,701.0862,504.7388,697.4937,509.594,706.0626" style="stroke:#A80036;stroke-width:1.0;"/><text fill="#000000" font-family="sans-serif" font-size="13" lengthAdjust="spacing" textLength="24" x="486.5" y="535.7905">636</text><!--MD5=[07bf1baeda1efd1fc31955aeecc9fbab]
@startuml
card app {
    storage app_private
    storage app_public
    storage app_persistence

}
card mgmt {
    storage mgmt_public
    storage mgmt_private
    storage mgmt_persistence

}


cloud universe
note bottom: 0.0.0.0/0

cloud aws_s3
note bottom: 3.5.164.0/22\n3.5.168.0/23\n52.95.128.0/21

cloud onprem_ldap
note bottom: 54.192.220.70/32





note bottom of app
10.0.0.0/16
10.1.0.0/16
10.2.0.0/16
end note
note bottom of mgmt
10.8.0.0/16
end note


note bottom of mgmt_private
10.8.16.0/22
10.8.12.0/22
10.8.20.0/22
end note
note bottom of mgmt_public
10.8.0.0/22
10.8.8.0/22
10.8.4.0/22
end note
note bottom of app_persistence
10.0.24.0/22
10.0.28.0/22
10.0.32.0/22
end note
note bottom of mgmt_persistence
10.8.32.0/22
10.8.28.0/22
10.8.24.0/22
end note
note bottom of app_public
10.0.4.0/22
10.0.0.0/22
10.0.8.0/22
end note
note bottom of app_private
10.0.16.0/22
10.0.20.0/22
10.0.12.0/22
end note

universe - -> app_public : 443
mgmt_private - -> mgmt : ALL
app_private - -> app_persistence : 3306
universe - -> mgmt_public : 443
app_public - -> app_private : 443
app_private - -> aws_s3 : 443
app_public - -> aws_s3 : 443
mgmt_private - -> app : ALL
mgmt_public - -> mgmt_private : 443
app_private - -> onprem_ldap : 636
app_private - -> app_persistence : 22
mgmt_private - -> onprem_ldap : 636
@enduml

PlantUML version 1.2021.9beta2(Unknown compile time)
(GPL source distribution)
Java Runtime: Java(TM) SE Runtime Environment
JVM: Java HotSpot(TM) 64-Bit Server VM
Default Encoding: UTF-8
Language: en
Country: US
--></g></svg>